<?xml version="1.0" encoding="utf-8"?>
<!-- Generator: Adobe Illustrator 22.1.0, SVG Export Plug-In . SVG Version: 6.00 Build 0)  -->
<!--代码归DrawVictory Team绘赢团队所有
DrawVictory Team ©2022 Copyright
Dinosaur.YH  编写
 -->
<svg version="1.1" id="layer1" xmlns="http://www.w3.org/2000/svg" x="0px"
	 y="0px" viewBox="0 0 783.1 787.4" style="enable-background:new 0 0 783.1 787.4;" xml:space="preserve">
<style type="text/css">
	.st0{fill:#000000;stroke:#000000;stroke-miterlimit:10;}
	.st1{fill:#000000;}
	.st2{fill:none;stroke:#000000;stroke-miterlimit:10;}
</style>
	<g>
	<path class="st0" d="M471.7,283.7L562.3,182l-31.1-27.4l-77.7,87.5l-59.4-135.6l-26.6,28.2l60.1,136.6L294.4,421.2l-128.2-73.6
		l-30.7,27.5L268,450.9l-95.4,107.4l30.5,26.9l101.1-113.5l282.5,161.6l25.3-29.5L471.7,283.7z M330.6,442.2l115.2-129.3
		l115.1,261.6L330.6,442.2z"/>
		<polygon class="st0" points="577.9,139.8 570.5,133.2 538.3,147.9 566.8,174.4 	"/>
		<polygon class="st0" points="581.9,128.2 575.2,131.5 579.7,135.1 	"/>
		<polygon class="st0" points="143.7,589.2 174.8,617.6 195.9,592.5 165.5,564.9 	"/>
</g>
	<g id="XML_ID_1">
	<g>
		<path class="st1" d="M0.5,395.8c0-223.6,172-398.2,391-395.3c228.4,3,391.1,164.9,391.1,388.5S615,786.9,391.5,786.9
			S0.5,619.4,0.5,395.8z M758.9,391.2c0-202.9-164.5-367.4-367.4-367.4S24.1,188.3,24.1,391.2s164.5,367.4,367.4,367.4
			S758.9,594.1,758.9,391.2z"/>
	</g>
		<g>
		<path class="st2" d="M758.9,391.2c0,202.9-164.5,367.4-367.4,367.4S24.1,594.1,24.1,391.2S188.6,23.8,391.5,23.8
			S758.9,188.3,758.9,391.2z"/>
			<path class="st2" d="M782.6,389c0,223.6-167.6,397.9-391.1,397.9S0.5,619.4,0.5,395.8s172-398.2,391-395.3
			C619.9,3.5,782.6,165.4,782.6,389z"/>
	</g>
</g>
</svg>
